<svg xmlns="http://www.w3.org/2000/svg" fill="none" stroke="currentColor" stroke-linecap="round" stroke-linejoin="round" stroke-width="2" viewBox="0 0 120 120"><circle cx="28" cy="28" r="5"/><path d="M28 32q2 2 7-2 20-16 40 0 5 4 7 2m-47-2-3 16m43-16 3 16"/><path stroke-dasharray="4 3" d="M20 48h70" opacity=".2"/><path d="m53 52 7 4 7-4m-7-2v6" opacity=".4"/><circle cx="28" cy="66" r="5"/><path d="M28 70q2 2 7 4 20 14 40 0 5-2 7-4m-47 4-3 22m43-22 3 22"/><path stroke-dasharray="4 3" d="M20 100h70" opacity=".2"/></svg>